<?xml version="1.0" encoding="utf-8"?>
<!-- Generator: Adobe Illustrator 18.1.1, SVG Export Plug-In . SVG Version: 6.00 Build 0)  -->
<svg version="1.1" id="Capa_1" xmlns="http://www.w3.org/2000/svg" xmlns:xlink="http://www.w3.org/1999/xlink" x="0px" y="0px"
	 viewBox="345 -88.5 256 64" enable-background="new 345 -88.5 256 64" xml:space="preserve">
<g>
	<path fill="#FFFFFF" d="M368.3-79.7v7.1c-2.2-1.6-4.2-2.4-6-2.4c-1.9,0-3.5,0.7-4.7,2c-1.2,1.3-1.8,3-1.8,5.2
		c0,1.9,0.4,3.5,1.3,4.9c0.4,0.7,1.2,1.7,2.2,2.8c1,1.1,2.3,2.5,4,4.1c3,3,5,5.6,6.1,7.8c1.1,2.1,1.6,4.7,1.6,7.8
		c0,4.2-1.2,7.7-3.6,10.4c-2.4,2.6-5.4,4-9.1,4c-3.1,0-5.8-0.9-8-2.6v-7.2c2.6,1.9,5,2.8,7.1,2.8c2,0,3.6-0.7,4.7-2
		c1.1-1.3,1.7-3.1,1.7-5.4c0-2-0.4-3.7-1.3-5.3c-0.4-0.8-1.1-1.6-1.9-2.6c-0.8-1-1.8-2.1-3-3.3c-1.9-1.8-3.4-3.4-4.6-4.9
		c-1.2-1.4-2.1-2.6-2.7-3.7c-1.1-2.1-1.7-4.7-1.7-7.8c0-4.2,1.1-7.6,3.3-10.1c2.2-2.5,5.2-3.8,9-3.8
		C363.4-81.6,365.9-80.9,368.3-79.7z"/>
	<path fill="#FFFFFF" d="M375.2-62.9h6.7v4.2c1.9-3.2,4.4-4.8,7.5-4.8c3,0,5.1,1.2,6.3,3.5c0.7,1.3,1.1,3.9,1.1,7.6v25.9h-6.7
		l0-24.3c0-2.5-0.3-4.2-0.9-5.2c-0.6-1-1.6-1.5-3-1.5c-0.8,0-1.4,0.1-2,0.4c-0.5,0.3-1,0.7-1.3,1.3c-0.3,0.6-0.6,1.4-0.7,2.3
		c-0.2,1-0.2,2.1-0.2,3.6v23.5h-6.7V-62.9z"/>
	<path fill="#FFFFFF" d="M423.9-62.9v36.4h-6.7v-4.7c-1,2-1.9,3.4-2.9,4.1c-1,0.8-2.2,1.1-3.8,1.1c-3,0-5.2-1.5-6.6-4.6
		s-2.1-7.9-2.1-14.6c0-6.3,0.7-10.9,2.1-13.9c1.4-3,3.6-4.4,6.6-4.4c2.8,0,5,1.6,6.7,4.7v-4.1H423.9z M408.7-44.9
		c0,4.8,0.3,8.1,0.9,10c0.7,1.9,1.8,2.8,3.4,2.8c1.5,0,2.6-1,3.3-3c0.7-2.1,1-5.4,1-9.7c0-4.4-0.3-7.7-1-9.8c-0.7-2-1.8-3-3.3-3
		c-1.6,0-2.7,0.9-3.4,2.8C409-52.9,408.7-49.7,408.7-44.9z"/>
	<path fill="#FFFFFF" d="M445-62.2v6.9c-0.9-1.1-2.1-1.7-3.4-1.7c-3.7,0-5.6,4-5.6,12c0,8.5,1.8,12.8,5.5,12.8c1,0,2.2-0.5,3.4-1.4
		v6.3c-1.8,0.9-3.6,1.4-5.4,1.4c-7.2,0-10.8-6.1-10.8-18.4c0-6.5,0.9-11.4,2.7-14.5c1.8-3.1,4.5-4.7,8.3-4.7
		C441.6-63.5,443.3-63.1,445-62.2z"/>
	<path fill="#FFFFFF" d="M449.1-86.3h6.7v39.6l8.5-16.2h7.6l-9.3,16.2l10.5,20.2h-7.9l-9.5-19.3v19.3h-6.7V-86.3z"/>
	<path fill="#FFFFFF" d="M495.1-79.7v7.1c-2.2-1.6-4.2-2.4-6-2.4c-1.9,0-3.5,0.7-4.7,2c-1.2,1.3-1.8,3-1.8,5.2
		c0,1.9,0.4,3.5,1.3,4.9c0.4,0.7,1.2,1.7,2.2,2.8c1,1.1,2.3,2.5,4,4.1c3,3,5,5.6,6.1,7.8c1.1,2.1,1.6,4.7,1.6,7.8
		c0,4.2-1.2,7.7-3.6,10.4c-2.4,2.6-5.4,4-9.1,4c-3.1,0-5.8-0.9-8-2.6v-7.2c2.6,1.9,5,2.8,7.1,2.8c2,0,3.6-0.7,4.7-2
		c1.1-1.3,1.7-3.1,1.7-5.4c0-2-0.4-3.7-1.3-5.3c-0.4-0.8-1.1-1.6-1.9-2.6c-0.8-1-1.8-2.1-3-3.3c-1.9-1.8-3.4-3.4-4.6-4.9
		c-1.2-1.4-2.1-2.6-2.7-3.7c-1.1-2.1-1.7-4.7-1.7-7.8c0-4.2,1.1-7.6,3.3-10.1c2.2-2.5,5.2-3.8,9-3.8
		C490.2-81.6,492.7-80.9,495.1-79.7z"/>
	<path fill="#FFFFFF" d="M502-86.3h6.7v27.5c1.9-3.2,4.4-4.8,7.5-4.8c3,0,5.1,1.2,6.3,3.5c0.7,1.3,1.1,3.9,1.1,7.6v25.9h-6.7l0-24.3
		c0-2.5-0.3-4.2-0.9-5.2c-0.6-1-1.6-1.5-3-1.5c-0.8,0-1.4,0.1-2,0.4c-0.5,0.3-1,0.7-1.3,1.3c-0.3,0.6-0.6,1.4-0.7,2.3
		c-0.2,1-0.2,2.1-0.2,3.6v23.5H502V-86.3z"/>
	<path fill="#FFFFFF" d="M550.7-62.9v36.4h-6.7v-4.7c-1,2-1.9,3.4-2.9,4.1s-2.2,1.1-3.8,1.1c-3,0-5.2-1.5-6.6-4.6s-2.1-7.9-2.1-14.6
		c0-6.3,0.7-10.9,2.1-13.9c1.4-3,3.6-4.4,6.6-4.4c2.8,0,5,1.6,6.7,4.7v-4.1H550.7z M535.5-44.9c0,4.8,0.3,8.1,0.9,10
		c0.7,1.9,1.8,2.8,3.4,2.8c1.5,0,2.6-1,3.3-3c0.7-2.1,1-5.4,1-9.7c0-4.4-0.3-7.7-1-9.8c-0.7-2-1.8-3-3.3-3c-1.6,0-2.7,0.9-3.4,2.8
		C535.8-52.9,535.5-49.7,535.5-44.9z"/>
	<path fill="#FFFFFF" d="M571.8-62.2v6.9c-0.9-1.1-2.1-1.7-3.4-1.7c-3.7,0-5.6,4-5.6,12c0,8.5,1.8,12.8,5.5,12.8
		c1,0,2.2-0.5,3.4-1.4v6.3c-1.8,0.9-3.6,1.4-5.4,1.4c-7.2,0-10.8-6.1-10.8-18.4c0-6.5,0.9-11.4,2.7-14.5c1.8-3.1,4.5-4.7,8.3-4.7
		C568.4-63.5,570.1-63.1,571.8-62.2z"/>
	<path fill="#FFFFFF" d="M575.9-86.3h6.7v39.6l8.5-16.2h7.6l-9.3,16.2L600-26.5h-7.9l-9.5-19.3v19.3h-6.7V-86.3z"/>
</g>
</svg>
